{"title":"The Flying Machine 2011 BRRip 720p x264 AAC - PRiSTiNE [P2PDL]","uid":8427246,"size":537338637,"categoryP":"video","categoryS":"hd___movies","magnet":"?xt=urn:btih:265a24a1b993acf8da6fb06c995dbf8cf1ceaf4f&amp;dn=The+Flying+Machine+2011+BRRip+720p+x264+AAC+-+PRiSTiNE+%5BP2PDL%5D&amp;tr=udp%3A%2F%2Ftracker.openbittorrent.com%3A80&amp;tr=udp%3A%2F%2Fopen.demonii.com%3A1337&amp;tr=udp%3A%2F%2Ftracker.coppersurfer.tk%3A6969&amp;tr=udp%3A%2F%2Fexodus.desync.com%3A6969","seeders":0,"leechers":3,"uploader":"ValidusVyto","files":-1,"time":1367378742,"description":"_________________________  Visit us at _________________________\n  &lt;a href=&quot;\nhttp://p2pdl.com&quot; rel=&quot;nofollow&quot; target=&quot;_NEW&quot;&gt;\nhttp://p2pdl.com&lt;/a&gt;  ____________________________ &lt;a href=&quot; http://p2pdl.com&quot; rel=&quot;nofollow&quot; target=&quot;_NEW&quot;&gt; http://p2pdl.com&lt;/a&gt;\n\n &lt;a href=&quot;\nhttp://ultraimg.com/images/5danY.jpg&quot; rel=&quot;nofollow&quot; target=&quot;_NEW&quot;&gt;\nhttp://ultraimg.com/images/5danY.jpg&lt;/a&gt;\n\n\nThe Flying Machine 2011 BRRip 720p x264 AAC - PRiSTiNE\n\n\nGenre: Drama | History | War \nPlot: 'The Flying Machine' is a 3D live action/animation family feature film about a stressed out\nbusiness-woman, Georgie, who takes her two children to see the animation film 'Magic Piano', which\nis being performed live by world famous pianist Lang Lang. A magical event occurs and Georgie's kids \nget transported inside the animation world, and Georgie has to pursue them, with a little help from\nMaestro Lang Lang.\nDirector: Martin Clapp, Dorota Kobiela, Geoff Lindsey.\nStars: Heather Graham, Lang Lang, Kizzy Mee.\nRated: N/a\n\nInfo: &lt;a href=&quot;\nhttp://www.imdb.com/title/tt2630134/&quot; rel=&quot;nofollow&quot; target=&quot;_NEW&quot;&gt;\nhttp://www.imdb.com/title/tt2630134/&lt;/a&gt;\n\n\nTrailer:\n\nFormat                         : MPEG-4\nFile size                      : 501 MiB\nDuration                       : 1h 16mn\nOverall bit rate mode          : Variable\nOverall bit rate               : 919 Kbps\n\nVideo\nFormat                         : AVC\nFormat/Info                    : Advanced Video Codec\nFormat profile                 : High &lt;a class=&quot;__cf_email__&quot; href=&quot;/cdn-cgi/l/email-protection&quot; data-cfemail=&quot;467776060a726877&quot;&gt;[email&amp;#160;protected]&lt;/a&gt;&lt;script data-cfhash='f9e31' type=&quot;text/javascript&quot;&gt;\n/* &lt;![CDATA[ */!function(){try{var t=&quot;currentScript&quot;in document?document.currentScript:function(){for(var t=document.getElementsByTagName(&quot;script&quot;),e=t.length;e--;)if(t[e].getAttribute(&quot;data-cfhash&quot;))return t[e]}();if(t&amp;&amp;t.previousSibling){var e,r,n,i,c=t.previousSibling,a=c.getAttribute(&quot;data-cfemail&quot;);if(a){for(e=&quot;&quot;,r=parseInt(a.substr(0,2),16),n=2;a.length-n;n+=2)i=parseInt(a.substr(n,2),16)^r,e+=String.fromCharCode(i);e=document.createTextNode(e),c.parentNode.replaceChild(e,c)}t.parentNode.removeChild(t);}}catch(u){}}()/* ]]&gt; */&lt;/script&gt;\nBit rate                       : 836 Kbps\nWidth                          : 1 280 pixels\nHeight                         : 720 pixels\nDisplay aspect ratio           : 16:9\nFrame rate mode                : Constant\nFrame rate                     : 23.976 fps\nBit depth                      : 10 bits\nScan type                      : Progressive\nBits/(Pixel*Frame)             : 0.038\nStream size                    : 456 MiB (91%)\n\nAudio\nFormat                         : AAC\nFormat/Info                    : Advanced Audio Codec\nBit rate                       : 80.0 Kbps\nChannel(s)                     : 2 channels\nChannel positions              : Front: L R\nSampling rate                  : 48.0 KHz / 24.0 KHz\nStream size                    : 43.7 MiB (9%)\nLanguage                       : English\n\nSubtitle                       : Yes (English)\nSource                         : 720p.BluRay.DTS.x264-IRONCLUB (Thanks)\n\nScreenshots:\n &lt;a href=&quot;\nhttp://www.ultraimg.com/images/8m05.png&quot; rel=&quot;nofollow&quot; target=&quot;_NEW&quot;&gt;\nhttp://www.ultraimg.com/images/8m05.png&lt;/a&gt; &lt;a href=&quot;\nhttp://www.ultraimg.com/images/OlyDI.png&quot; rel=&quot;nofollow&quot; target=&quot;_NEW&quot;&gt;\nhttp://www.ultraimg.com/images/OlyDI.png&lt;/a&gt; &lt;a href=&quot;\nhttp://www.ultraimg.com/images/IdZJ.png&quot; rel=&quot;nofollow&quot; target=&quot;_NEW&quot;&gt;\nhttp://www.ultraimg.com/images/IdZJ.png&lt;/a&gt; &lt;a href=&quot;\nhttp://www.ultraimg.com/images/ydXT.png&quot; rel=&quot;nofollow&quot; target=&quot;_NEW&quot;&gt;\nhttp://www.ultraimg.com/images/ydXT.png&lt;/a&gt; &lt;a href=&quot;\nhttp://www.ultraimg.com/images/C6zY2.png&quot; rel=&quot;nofollow&quot; target=&quot;_NEW&quot;&gt;\nhttp://www.ultraimg.com/images/C6zY2.png&lt;/a&gt; &lt;a href=&quot;\nhttp://www.ultraimg.com/images/vYA6.png&quot; rel=&quot;nofollow&quot; target=&quot;_NEW&quot;&gt;\nhttp://www.ultraimg.com/images/vYA6.png&lt;/a&gt;\n\n----------------------------------------------------------------------------------------------------\n\n\nEncoded using revolutionary 10bit encoding, which enables us to provide you more crispier \nand sharper images at small sizes, just make sure you follow our instructions without a fault.\nRecommend to you to use latest version of VLC player. Install K-Lite Codec Pack or shark007 codecs\nin case of any kind of problem in playback (For non-VLC Media Player users). Alternatively, install\nCore AVC codecs, the fastest decoder that there is coupled with Community Center Codec Pack and play\non Windows Media Player Classic. Check sample to be sure.\nEnjoy!\n\nEncoder Notes:Looking For Early Access To Anything You Can Provide DVDScr, R5, DVDR, BluRay, Direct\nAudio, Music Releases and Seedboxes. We require dedicated servers, so as to do more \nand fast releases of movies.\nIf You Got anything to offer please contact us at &quot;&lt;a class=&quot;__cf_email__&quot; href=&quot;/cdn-cgi/l/email-protection&quot; data-cfemail=&quot;afdfddc8efc7dadcc781ccc0c2&quot;&gt;[email&amp;#160;protected]&lt;/a&gt;&lt;script data-cfhash='f9e31' type=&quot;text/javascript&quot;&gt;\n/* &lt;![CDATA[ */!function(){try{var t=&quot;currentScript&quot;in document?document.currentScript:function(){for(var t=document.getElementsByTagName(&quot;script&quot;),e=t.length;e--;)if(t[e].getAttribute(&quot;data-cfhash&quot;))return t[e]}();if(t&amp;&amp;t.previousSibling){var e,r,n,i,c=t.previousSibling,a=c.getAttribute(&quot;data-cfemail&quot;);if(a){for(e=&quot;&quot;,r=parseInt(a.substr(0,2),16),n=2;a.length-n;n+=2)i=parseInt(a.substr(n,2),16)^r,e+=String.fromCharCode(i);e=document.createTextNode(e),c.parentNode.replaceChild(e,c)}t.parentNode.removeChild(t);}}catch(u){}}()/* ]]&gt; */&lt;/script&gt;&quot;.\n\nFace book Fan Page:   &lt;a href=&quot;\nhttp://www.fb.me/p2pdl&quot; rel=&quot;nofollow&quot; target=&quot;_NEW&quot;&gt;\nhttp://www.fb.me/p2pdl&lt;/a&gt;","torrent":{"xt":"urn:btih:265a24a1b993acf8da6fb06c995dbf8cf1ceaf4f","amp;dn":"The+Flying+Machine+2011+BRRip+720p+x264+AAC+-+PRiSTiNE+%5BP2PDL%5D","amp;tr":["udp%3A%2F%2Ftracker.openbittorrent.com%3A80","udp%3A%2F%2Fopen.demonii.com%3A1337","udp%3A%2F%2Ftracker.coppersurfer.tk%3A6969","udp%3A%2F%2Fexodus.desync.com%3A6969"],"infoHash":"265a24a1b993acf8da6fb06c995dbf8cf1ceaf4f","infoHashBuffer":{"type":"Buffer","data":[38,90,36,161,185,147,172,248,218,111,176,108,153,93,191,140,241,206,175,79]},"announce":[],"urlList":[]}}